<mxfile host="app.diagrams.net" modified="2024-10-01T19:31:01.364Z" agent="Mozilla/5.0 (X11; Linux x86_64) AppleWebKit/537.36 (KHTML, like Gecko) Chrome/127.0.0.0 Safari/537.36" version="24.4.14" etag="iASkMLvXLcFWwm9-3eYr" type="github">
  <diagram name="Page-1" id="IDa8VPxM7N5lLcx1AvHh">
    <mxGraphModel>
      <root>
        <mxCell id="0" />
        <mxCell id="1" parent="0" />
      </root>
    </mxGraphModel>
  </diagram>
</mxfile>
